<?xml version="1.0" encoding="UTF-8" standalone="no"?>
<!-- Created with Inkscape (http://www.inkscape.org/) -->

<svg
   width="64"
   height="64"
   viewBox="0 0 16.933333 16.933333"
   version="1.1"
   id="svg5"
   inkscape:version="1.2.2 (b0a8486541, 2022-12-01)"
   sodipodi:docname="logo.svg"
   xmlns:inkscape="http://www.inkscape.org/namespaces/inkscape"
   xmlns:sodipodi="http://sodipodi.sourceforge.net/DTD/sodipodi-0.dtd"
   xmlns="http://www.w3.org/2000/svg"
   xmlns:svg="http://www.w3.org/2000/svg">
  <sodipodi:namedview
     id="namedview7"
     pagecolor="#ffffff"
     bordercolor="#666666"
     borderopacity="1.0"
     inkscape:showpageshadow="2"
     inkscape:pageopacity="0.0"
     inkscape:pagecheckerboard="0"
     inkscape:deskcolor="#d1d1d1"
     inkscape:document-units="mm"
     showgrid="false"
     inkscape:zoom="4.7572176"
     inkscape:cx="-11.035863"
     inkscape:cy="26.065657"
     inkscape:window-width="1920"
     inkscape:window-height="1011"
     inkscape:window-x="0"
     inkscape:window-y="32"
     inkscape:window-maximized="1"
     inkscape:current-layer="layer1" />
  <defs
     id="defs2" />
  <g
     inkscape:label="Layer 1"
     inkscape:groupmode="layer"
     id="layer1">
    <path
       id="path2439"
       style="font-variation-settings:normal;opacity:1;vector-effect:non-scaling-stroke;fill:#3485fd;fill-opacity:1;fill-rule:evenodd;stroke:none;stroke-width:0.254173;stroke-linecap:butt;stroke-linejoin:miter;stroke-miterlimit:4;stroke-dasharray:none;stroke-dashoffset:0;stroke-opacity:1;-inkscape-stroke:hairline;stop-color:#000000;stop-opacity:1"
       d="M 14.79517,8.489254 A 6.3287409,6.3287409 0 0 0 8.4666663,2.1607502 6.3287409,6.3287409 0 0 0 2.1381622,8.489254 6.3287409,6.3287409 0 0 0 3.2705211,12.098805 l -4e-7,-2.2051473 c 0,-0.1426268 0.114526,-0.2571513 0.2571513,-0.2571513 h 0.9933592 c 0.1426266,0 0.2576471,0.1145245 0.2576471,0.2571513 l 6e-7,3.7341553 a 6.3287409,6.3287409 0 0 0 0.7128752,0.44232 l 2e-7,-6.1031248 c 0,-0.1426264 0.1145241,-0.2576478 0.2571517,-0.2576475 l 0.9938552,2e-7 c 0.1426256,-5e-7 0.2571507,0.1150209 0.2571508,0.2576474 l -4e-7,6.6765027 a 6.3287409,6.3287409 0 0 0 0.7128756,0.125597 l -2e-7,-8.7292458 c 0,-0.142626 0.1145248,-0.257151 0.2571513,-0.257151 h 0.9938553 c 0.1426267,0 0.2571514,0.114525 0.2571514,0.257151 l -6e-7,8.7327218 a 6.3287409,6.3287409 0 0 0 0.7128751,-0.127087 l 8e-7,-6.6784887 c 0,-0.1426264 0.1145237,-0.2576476 0.2571507,-0.2576476 h 0.993856 c 0.142627,-3e-7 0.257151,0.1150211 0.257151,0.2576476 v 6.1080897 a 6.3287409,6.3287409 0 0 0 0.712875,-0.442817 V 9.8936577 c 1e-6,-0.1426268 0.115022,-0.2571513 0.257648,-0.2571513 h 0.993359 c 0.142626,0 0.257152,0.1145245 0.257152,0.2571513 V 12.101288 A 6.3287409,6.3287409 0 0 0 14.79517,8.489254 Z" />
    <text
       xml:space="preserve"
       style="font-style:normal;font-variant:normal;font-weight:bold;font-stretch:normal;font-size:6.85095px;line-height:1.25;font-family:Steelfish;-inkscape-font-specification:'Steelfish, Bold';font-variant-ligatures:normal;font-variant-caps:normal;font-variant-numeric:normal;font-variant-east-asian:normal;letter-spacing:0px;word-spacing:0px;fill:#0055d4;stroke-width:0.856369"
       x="-9.2040577"
       y="10.622841"
       id="text2353"><tspan
         sodipodi:role="line"
         id="tspan2351"
         style="font-style:normal;font-variant:normal;font-weight:bold;font-stretch:normal;font-size:6.85095px;font-family:Steelfish;-inkscape-font-specification:'Steelfish, Bold';font-variant-ligatures:normal;font-variant-caps:normal;font-variant-numeric:normal;font-variant-east-asian:normal;fill:#0055d4;stroke-width:0.856369"
         x="-9.2040577"
         y="10.622841">SEZ</tspan></text>
  </g>
</svg>
